<svg width="591" height="210" viewBox="0 0 591 210" fill="none" xmlns="http://www.w3.org/2000/svg">
<path d="M510.036 73.872C513.492 73.872 516.308 76.688 516.308 80.144V112.4C516.18 126.608 504.66 138.128 490.324 138.128C476.116 138.128 464.596 126.608 464.468 112.4V80.144C464.468 76.688 467.284 73.872 470.74 73.872C474.324 73.872 477.14 76.688 477.14 80.144V112.144C477.14 119.44 483.028 125.456 490.324 125.456C497.748 125.456 503.636 119.44 503.636 112.144V80.144C503.636 76.688 506.452 73.872 510.036 73.872Z" fill="#3A3A3A"/>
<path d="M442.493 127.376C444.669 130.064 444.285 134.032 441.597 136.208C440.445 137.232 439.037 137.744 437.629 137.744C435.709 137.744 433.917 136.976 432.765 135.44L408.445 106.256L404.477 108.944V131.344C404.477 134.928 401.533 137.744 398.077 137.744C394.621 137.744 391.805 134.928 391.805 131.344V48.4C391.805 44.944 394.621 42.128 398.077 42.128C401.533 42.128 404.477 44.944 404.477 48.4V93.968L433.533 74.896C436.221 72.72 440.189 72.976 442.493 75.664C444.669 78.352 444.285 82.448 441.597 84.624L419.197 99.344L442.493 127.376Z" fill="#3A3A3A"/>
<path d="M339.609 74C357.657 74 371.097 88.336 371.097 106.384V131.472C371.097 135.184 368.409 137.872 364.697 137.872C362.137 137.872 358.553 135.184 358.553 131.472C353.049 136.08 346.905 137.872 339.609 137.872C321.561 137.872 307.225 124.432 307.225 106.384C307.225 88.336 321.561 74 339.609 74ZM339.609 125.328C350.361 125.328 358.553 117.136 358.553 106.384C358.553 95.632 350.361 86.544 339.609 86.544C328.857 86.544 319.769 95.632 319.769 106.384C319.769 117.136 328.857 125.328 339.609 125.328Z" fill="#3A3A3A"/>
<path d="M258.478 73.744C274.094 73.744 286.766 86.416 286.766 101.904V131.6C286.766 135.184 283.822 138 280.366 138C276.91 138 274.094 135.184 274.094 131.6V101.904C274.094 93.328 267.054 86.416 258.478 86.416C249.902 86.416 242.99 93.328 242.99 101.904V131.6C242.99 135.184 240.174 138 236.59 138C233.134 138 230.318 135.184 230.318 131.6V48.272C230.318 44.816 233.134 42 236.59 42C240.174 42 242.99 44.816 242.99 48.272V78.352C247.47 75.408 252.718 73.744 258.478 73.744Z" fill="#3A3A3A"/>
<path d="M178.131 138C160.467 138 146.003 123.536 146.003 105.872C146.003 88.08 160.467 73.744 178.131 73.744C195.923 73.744 210.259 88.08 210.259 105.872C210.259 123.536 195.923 138 178.131 138ZM178.131 86.416C167.379 86.416 158.675 95.12 158.675 105.872C158.675 116.496 167.379 125.328 178.131 125.328C188.883 125.328 197.587 116.496 197.587 105.872C197.587 95.12 188.883 86.416 178.131 86.416Z" fill="#9ACA76"/>
<path d="M119.262 74.256C122.846 74.256 125.662 77.072 125.662 80.528V143.632C125.662 158.096 113.758 170 99.166 170C89.054 170 79.966 164.24 75.486 155.152C73.95 152.08 75.23 148.24 78.43 146.704C81.502 145.168 85.342 146.576 86.75 149.648C89.182 154.384 93.918 157.328 99.166 157.328C106.846 157.328 112.99 151.184 112.99 143.632V134.416C109.15 136.72 104.67 138 99.806 138C85.726 138 74.206 126.608 74.078 112.528C74.078 112.4 74.078 112.4 74.078 112.4V80.528C74.078 77.072 76.894 74.256 80.35 74.256C83.806 74.256 86.622 77.072 86.622 80.528V112.272C86.622 119.568 92.638 125.456 99.806 125.456C107.102 125.456 112.99 119.568 112.99 112.272V80.528C112.99 77.072 115.806 74.256 119.262 74.256Z" fill="#3A3A3A"/>
<path d="M26 210H23L23 184H26L26 210Z" fill="#3A3A3A"/>
<path d="M568 210H565V184H568V210Z" fill="#3A3A3A"/>
<path d="M568 26H565V0L568 1.31134e-07V26Z" fill="#3A3A3A"/>
<path d="M565 27V24L591 24V27L565 27Z" fill="#3A3A3A"/>
<path d="M0 187L2.62268e-07 184H26V187H0Z" fill="#3A3A3A"/>
<path d="M0 27L2.62268e-07 24L26 24V27L0 27Z" fill="#3A3A3A"/>
<path d="M565 187V184H591V187H565Z" fill="#3A3A3A"/>
<path d="M26 27H23L23 1L26 1V27Z" fill="#3A3A3A"/>
</svg>
